<svg xmlns="http://www.w3.org/2000/svg" xmlns:xlink="http://www.w3.org/1999/xlink" width="1920" zoomAndPan="magnify" viewBox="0 0 1440 202.499994" height="270" preserveAspectRatio="xMidYMid meet" version="1.0"><defs><g/><clipPath id="9db0cda2f7"><path d="M 1.773438 17 L 521 17 L 521 182 L 1.773438 182 Z M 1.773438 17 " clip-rule="nonzero"/></clipPath></defs><g clip-path="url(#9db0cda2f7)"><path stroke-linecap="butt" transform="matrix(0.662937, 0, 0, 0.662937, -27.136327, 41.336277)" fill="none" stroke-linejoin="miter" d="M 198.400367 12.190738 L 198.400367 45.777072 L 157.925888 45.777072 L 157.925888 164.000969 L 115.713169 164.000969 L 115.713169 45.777072 L 75.710078 45.777072 L 75.710078 12.190738 Z M 310.148583 139.241359 L 256.316171 139.241359 L 248.172958 164.000969 L 203.803643 164.000969 L 259.103247 12.190738 L 307.779863 12.190738 L 362.920374 164.000969 L 318.344827 164.000969 Z M 299.577726 106.963124 L 283.232377 57.868153 L 267.09326 106.963124 Z M 433.952525 165.527085 C 416.293184 165.527085 401.786245 161.319955 390.431707 152.905694 C 379.112523 144.497326 373.013952 132.476953 372.135993 116.85047 L 417.135789 116.85047 C 417.589499 122.177144 419.168646 126.066088 421.861445 128.517301 C 424.59549 130.933161 428.119109 132.146982 432.432302 132.146982 C 436.321246 132.146982 439.509001 131.180639 441.995568 129.253844 C 444.51749 127.291695 445.784343 124.593003 445.784343 121.15777 C 445.784343 116.709053 443.698454 113.27382 439.526678 110.85796 C 435.390256 108.400855 428.643527 105.666809 419.286493 102.655824 C 409.405039 99.326652 401.415027 96.12122 395.316456 93.033634 C 389.217885 89.95194 383.908887 85.432516 379.389463 79.475361 C 374.870039 73.518206 372.60738 65.734426 372.60738 56.135805 C 372.60738 46.360414 375.046809 37.999184 379.913881 31.058009 C 384.786846 24.087371 391.533574 18.813727 400.154067 15.237077 C 408.774559 11.630966 418.532273 9.822018 429.433101 9.822018 C 447.098334 9.822018 461.198702 13.95844 471.751882 22.231284 C 482.29917 30.462882 487.920461 42.047222 488.62165 56.978409 L 442.785142 56.978409 C 442.643726 52.382385 441.241349 48.953043 438.578012 46.672708 C 435.914674 44.362911 432.497117 43.20212 428.331233 43.20212 C 425.17294 43.20212 422.597987 44.150787 420.600484 46.042228 C 418.602981 47.898314 417.607176 50.543975 417.607176 53.979209 C 417.607176 56.85467 418.709043 59.341238 420.918671 61.444803 C 423.163652 63.513014 425.927159 65.298393 429.220977 66.806831 C 432.514794 68.31527 437.387759 70.206711 443.833978 72.481154 C 453.473845 75.774972 461.410827 79.051113 467.650814 82.315469 C 473.884909 85.538578 479.264615 90.058003 483.784039 95.873741 C 488.309356 101.68948 490.566122 109.031335 490.566122 117.899306 C 490.566122 126.973509 488.309356 135.104937 483.784039 142.287699 C 479.264615 149.440998 472.73001 155.097644 464.180226 159.26942 C 455.665796 163.441197 445.589895 165.527085 433.952525 165.527085 Z M 599.922048 164.000969 L 552.353192 97.452888 L 552.353192 164.000969 L 510.140473 164.000969 L 510.140473 12.190738 L 552.353192 12.190738 L 552.353192 77.68409 L 599.503692 12.190738 L 648.180307 12.190738 L 592.409315 85.833195 L 650.967383 164.000969 Z M 723.743667 165.527085 C 706.084326 165.527085 691.571494 161.319955 680.216956 152.905694 C 668.897772 144.497326 662.805093 132.476953 661.927135 116.85047 L 706.921038 116.85047 C 707.38064 122.177144 708.953895 126.066088 711.652586 128.517301 C 714.386632 130.933161 717.910251 132.146982 722.217551 132.146982 C 726.112387 132.146982 729.300143 131.180639 731.78671 129.253844 C 734.308631 127.291695 735.569592 124.593003 735.569592 121.15777 C 735.569592 116.709053 733.483704 113.27382 729.31782 110.85796 C 725.181397 108.400855 718.434669 105.666809 709.077634 102.655824 C 699.196181 99.326652 691.206169 96.12122 685.107598 93.033634 C 679.009026 89.95194 673.700029 85.432516 669.180604 79.475361 C 664.66118 73.518206 662.398522 65.734426 662.398522 56.135805 C 662.398522 46.360414 664.83795 37.999184 669.705022 31.058009 C 674.577987 24.087371 681.324716 18.813727 689.945208 15.237077 C 698.565701 11.630966 708.323415 9.822018 719.224242 9.822018 C 736.883583 9.822018 750.989844 13.95844 761.537131 22.231284 C 772.084419 30.462882 777.711603 42.047222 778.412791 56.978409 L 732.576283 56.978409 C 732.434867 52.382385 731.03249 48.953043 728.369153 46.672708 C 725.705816 44.362911 722.288259 43.20212 718.122375 43.20212 C 714.964081 43.20212 712.389129 44.150787 710.391626 46.042228 C 708.394123 47.898314 707.398317 50.543975 707.398317 53.979209 C 707.398317 56.85467 708.500185 59.341238 710.709812 61.444803 C 712.948901 63.513014 715.7183 65.298393 719.012118 66.806831 C 722.305936 68.31527 727.1789 70.206711 733.62512 72.481154 C 743.264987 75.774972 751.201968 79.051113 757.436063 82.315469 C 763.67605 85.538578 769.055756 90.058003 773.575181 95.873741 C 778.094605 101.68948 780.357263 109.031335 780.357263 117.899306 C 780.357263 126.973509 778.094605 135.104937 773.575181 142.287699 C 769.055756 149.440998 762.521152 155.097644 753.971368 159.26942 C 745.451045 163.441197 735.381037 165.527085 723.743667 165.527085 Z M 723.743667 165.527085 " stroke="#ffffff" stroke-width="8.074162" stroke-opacity="1" stroke-miterlimit="4"/></g><g fill="#ffffff" fill-opacity="1"><g transform="translate(523.114596, 137.495516)"><g><path d="M 98.34375 0 L 79.9375 0 L 79.828125 -53.328125 L 60.140625 -8.203125 L 46.53125 -8.203125 L 26.84375 -53.328125 L 26.84375 0 L 8.203125 0 L 8.203125 -82.171875 L 31.0625 -82.171875 L 53.328125 -33.296875 L 75.609375 -82.171875 L 98.34375 -82.171875 Z M 98.34375 0 "/></g></g></g><g fill="#ffffff" fill-opacity="1"><g transform="translate(629.786483, 137.495516)"><g><path d="M 62.71875 -15.125 L 26.84375 -15.125 L 20.859375 0 L -0.59375 0 L 34.8125 -82.046875 L 56.265625 -82.046875 L 90.84375 0 L 68.578125 0 Z M 56.609375 -30.953125 L 44.890625 -61.3125 L 32.9375 -30.953125 Z M 56.609375 -30.953125 "/></g></g></g><g fill="#ffffff" fill-opacity="1"><g transform="translate(720.04731, 137.495516)"><g><path d="M 83.921875 0 L 65.53125 0 L 27.78125 -50.515625 L 27.78125 0 L 8.203125 0 L 8.203125 -82.046875 L 26.609375 -82.046875 L 64.46875 -31.421875 L 64.46875 -82.046875 L 83.921875 -82.046875 Z M 83.921875 0 "/></g></g></g><g fill="#ffffff" fill-opacity="1"><g transform="translate(812.18368, 137.495516)"><g><path d="M 62.71875 -15.125 L 26.84375 -15.125 L 20.859375 0 L -0.59375 0 L 34.8125 -82.046875 L 56.265625 -82.046875 L 90.84375 0 L 68.578125 0 Z M 56.609375 -30.953125 L 44.890625 -61.3125 L 32.9375 -30.953125 Z M 56.609375 -30.953125 "/></g></g></g><g fill="#ffffff" fill-opacity="1"><g transform="translate(902.444521, 137.495516)"><g><path d="M 62.71875 -41.734375 L 80.765625 -41.734375 L 80.765625 -9.734375 C 76.304688 -6.609375 70.929688 -4.046875 64.640625 -2.046875 C 58.347656 -0.0546875 52.351562 0.9375 46.65625 0.9375 C 34.144531 0.9375 23.707031 -3.066406 15.34375 -11.078125 C 6.988281 -19.085938 2.8125 -29.070312 2.8125 -41.03125 C 2.8125 -52.90625 7.109375 -62.828125 15.703125 -70.796875 C 24.296875 -78.765625 35.082031 -82.75 48.0625 -82.75 C 54.15625 -82.75 60.207031 -81.65625 66.21875 -79.46875 C 72.238281 -77.28125 77.359375 -74.3125 81.578125 -70.5625 L 69.859375 -56.375 C 66.890625 -59.113281 63.453125 -61.285156 59.546875 -62.890625 C 55.640625 -64.492188 51.769531 -65.296875 47.9375 -65.296875 C 41.21875 -65.296875 35.570312 -62.96875 31 -58.3125 C 26.425781 -53.664062 24.140625 -47.90625 24.140625 -41.03125 C 24.140625 -34.070312 26.445312 -28.25 31.0625 -23.5625 C 35.675781 -18.875 41.378906 -16.53125 48.171875 -16.53125 C 52.546875 -16.53125 57.394531 -17.859375 62.71875 -20.515625 Z M 62.71875 -41.734375 "/></g></g></g><g fill="#ffffff" fill-opacity="1"><g transform="translate(989.540357, 137.495516)"><g><path d="M 72.4375 -65.640625 L 29.0625 -65.640625 L 29.0625 -49.34375 L 68.21875 -49.34375 L 68.21875 -32.9375 L 29.0625 -32.9375 L 29.0625 -16.40625 L 73.734375 -16.40625 L 73.734375 0 L 8.203125 0 L 8.203125 -82.046875 L 72.4375 -82.046875 Z M 72.4375 -65.640625 "/></g></g></g><g fill="#ffffff" fill-opacity="1"><g transform="translate(1068.547857, 137.495516)"><g><path d="M 98.34375 0 L 79.9375 0 L 79.828125 -53.328125 L 60.140625 -8.203125 L 46.53125 -8.203125 L 26.84375 -53.328125 L 26.84375 0 L 8.203125 0 L 8.203125 -82.171875 L 31.0625 -82.171875 L 53.328125 -33.296875 L 75.609375 -82.171875 L 98.34375 -82.171875 Z M 98.34375 0 "/></g></g></g><g fill="#ffffff" fill-opacity="1"><g transform="translate(1175.219774, 137.495516)"><g><path d="M 72.4375 -65.640625 L 29.0625 -65.640625 L 29.0625 -49.34375 L 68.21875 -49.34375 L 68.21875 -32.9375 L 29.0625 -32.9375 L 29.0625 -16.40625 L 73.734375 -16.40625 L 73.734375 0 L 8.203125 0 L 8.203125 -82.046875 L 72.4375 -82.046875 Z M 72.4375 -65.640625 "/></g></g></g><g fill="#ffffff" fill-opacity="1"><g transform="translate(1254.227332, 137.495516)"><g><path d="M 83.921875 0 L 65.53125 0 L 27.78125 -50.515625 L 27.78125 0 L 8.203125 0 L 8.203125 -82.046875 L 26.609375 -82.046875 L 64.46875 -31.421875 L 64.46875 -82.046875 L 83.921875 -82.046875 Z M 83.921875 0 "/></g></g></g><g fill="#ffffff" fill-opacity="1"><g transform="translate(1346.363716, 137.495516)"><g><path d="M 70.921875 -65.296875 L 46.1875 -65.296875 L 46.1875 0 L 25.3125 0 L 25.3125 -65.296875 L 0.828125 -65.296875 L 0.828125 -82.171875 L 70.921875 -82.171875 Z M 70.921875 -65.296875 "/></g></g></g></svg>